<svg width="293" height="312" viewBox="0 0 293 312" fill="none" xmlns="http://www.w3.org/2000/svg">
<path d="M31.4346 156.969H68.287V311.26H31.4346V156.969Z" fill="#A84658"/>
<path d="M224.415 156.969H261.267V311.26H224.415V156.969Z" fill="#A84658"/>
<path d="M177.33 127.754H115.373C110.686 127.754 106.884 123.952 106.884 119.266V115.112H14.5914C11.446 115.112 9.49814 118.553 11.1277 121.246L22.446 139.977H270.259L281.577 121.246C283.206 118.553 281.261 115.112 278.113 115.112H185.821V119.266C185.81 123.95 182.006 127.754 177.321 127.754H177.33Z" fill="#A84658"/>
<path d="M115.371 23.5438H177.329C182.015 23.5438 185.818 27.3461 185.818 32.0326V36.186H268.189C269.48 36.186 270.703 35.5645 271.461 34.5211L291.912 6.4297C293.86 3.75929 291.945 0 288.64 0L4.05266 0.00252641C0.748104 0.00252641 -1.16437 3.7593 0.780959 6.43223L21.2348 34.5236C21.9927 35.5771 23.2054 36.1885 24.5065 36.1885H106.878V32.0326C106.878 27.3486 110.683 23.5438 115.367 23.5438H115.371Z" fill="#A84658"/>
<path d="M123.863 40.5215V110.773H168.844V40.5215H123.863Z" fill="#A84658"/>
<path d="M208.362 53.1636H239.149V98.1309H208.362V53.1636Z" fill="#A84658"/>
<path d="M53.5664 53.1636H84.3535V98.1309H53.5664V53.1636Z" fill="#A84658"/>
</svg>
